<svg viewBox="0 0 1280 479.58" xmlns="http://www.w3.org/2000/svg" xmlns:xlink="http://www.w3.org/1999/xlink"><clipPath id="a"><path d="m0 0h1280v480h-1280z"/></clipPath><g clip-path="url(#a)"><path d="m707.51 81.47h451.72v258.4h-451.72z" fill="#e6e2de"/><path d="m743.05 108.57v45.51l38.13-27.08 3.11-2.21v-16.22zm31.24 11.08-21.24 15.07v-16.15h21.24z" fill="#fff"/><path d="m779.37 133.59 1.42 3.92v.01l-.01.01-3.22 2.63 1.41 3.93-3.23 2.65 1.42 3.92-3.23 2.65 1.42 3.92v.01h-.01l-3.22 2.64 1.41 3.93-3.22 2.65 1.41 3.92-3.23 2.65 1.42 3.92v.01l-3.23 2.64v9.06l-10.03 38.22h-13.6v-72.8l38.13-27.06 1.42 3.92z" fill="#d8d5ce"/><path d="m874.73 207.68h-11a1.34 1.34 0 0 1 -1.34-1.41l4.18-75.12a8.57 8.57 0 0 0 2.69.44 8.21 8.21 0 0 0 2.67-.44l4.18 75.12a1.34 1.34 0 0 1 -1.38 1.41z" fill="#d8d5ce"/><path d="m884.88 117v12.69a.57.57 0 0 1 -1 .43 11.17 11.17 0 0 0 -7.28-3.11 8.31 8.31 0 0 1 -4.75 4.17 8.21 8.21 0 0 1 -2.67.44 8.57 8.57 0 0 1 -2.69-.44 8.26 8.26 0 0 1 -3.06-1.9c-.19 0-2.16 0-2.47 1.6a.58.58 0 0 1 -.57.45h-9.39a.59.59 0 0 1 -.59-.58v-14.75a.59.59 0 0 1 .59-.59h9.5a.6.6 0 0 1 .57.47c.13.73.58 2 2 2a8.25 8.25 0 0 1 13.6 1.77 11.16 11.16 0 0 0 7.31-3.11.57.57 0 0 1 .9.46z" fill="#fff"/><path d="m942.05 188.07v-51.65l-6.14-9a4.25 4.25 0 0 1 .45-5.34l6.09-6.33a.37.37 0 0 1 .64.26v9.4a3.33 3.33 0 0 0 3.33 3.32 3.33 3.33 0 0 0 3.33-3.32v-8.7a.36.36 0 0 1 .49-.35c1.52.5 6 2.68 6 10.63 0 5.44-4.92 9.44-4.92 9.44v51.65z" fill="#d8d5ce"/><path d="m1013.61 158.37h-7.89c-10.21-13.09 3.94-25 3.94-25s14.17 11.91 3.95 25z" fill="#d8d5ce"/><path d="m1023.17 180c0 8.72-2.5 14.2-5.18 17.57a2.49 2.49 0 0 1 -3.91-3.1c2.09-2.64 4.09-7.09 4.09-14.47 0-9-5.7-15.69-8.5-18.42-2.79 2.71-8.51 9.37-8.51 18.42 0 7.38 2 11.83 4.11 14.47a2.47 2.47 0 0 1 -.13 3.22 2.5 2.5 0 0 1 -3.8-.12c-2.68-3.37-5.18-8.85-5.18-17.57 0-10.48 6.06-18.06 9.56-21.57h7.89c3.51 3.46 9.56 11.04 9.56 21.57z" fill="#fff"/><path d="m1062.49 136.91c-5.57 0-6.71 9-1.56 27h3.1c5.15-18.04 3.97-27-1.54-27zm0 7.06a1.84 1.84 0 1 1 1.84-1.84 1.84 1.84 0 0 1 -1.84 1.87z" fill="#fff"/><path d="m1071.34 191.73h-17.72c-2.67-20.92 7.31-27.82 7.31-27.82h3.1s9.97 6.9 7.31 27.82z" fill="#d8d5ce"/><path d="m1126.59 188c0 5.84-7.07 10.93-7.07 10.93v-11.56h-6.7v11.56s-7.09-5.09-7.09-10.93 6.34-6.06 6.34-6.06v-38.94s-6.34-.21-6.34-6.05 7.09-10.94 7.09-10.94v11.56h6.7v-11.57s7.07 5.1 7.07 10.94-6.33 6.05-6.33 6.05v38.95s6.33.22 6.33 6.06z" fill="#fff"/><path d="m754.77 113.77v3.42a4.39 4.39 0 0 0 4.4 4.39v-3" fill="none" stroke="#dcdad1" stroke-linecap="round" stroke-miterlimit="10" stroke-width="2"/><path d="m818.71 113.77v3.42a4.39 4.39 0 0 0 4.4 4.39v-3" fill="none" stroke="#dcdad1" stroke-linecap="round" stroke-miterlimit="10" stroke-width="2"/><path d="m818.71 167v3.42a4.4 4.4 0 0 0 4.4 4.4v-3" fill="none" stroke="#dcdad1" stroke-linecap="round" stroke-miterlimit="10" stroke-width="2"/><path d="m908.32 113.77v3.42a4.39 4.39 0 0 0 4.4 4.39v-3" fill="none" stroke="#dcdad1" stroke-linecap="round" stroke-miterlimit="10" stroke-width="2"/><path d="m908.32 167v3.42a4.4 4.4 0 0 0 4.4 4.4v-3" fill="none" stroke="#dcdad1" stroke-linecap="round" stroke-miterlimit="10" stroke-width="2"/><path d="m975.34 150.18v3.41a4.39 4.39 0 0 0 4.39 4.4v-3" fill="none" stroke="#dcdad1" stroke-linecap="round" stroke-miterlimit="10" stroke-width="2"/><path d="m1059.78 139.19c0 1.35 1.1 3.41 2.45 3.41h.25v-2.31" fill="none" stroke="#dcdad1" stroke-linecap="round" stroke-miterlimit="10" stroke-width="2"/><path d="m960.69 240.61c.19-.29.28-.45.28-.45s25.88 2.37 38.17 11.05c39.87 28.15 18.16 98.26 18.16 98.26h-144s4.55-83.76 18.16-98.26c10.3-11 38.18-11.05 38.18-11.05s.15.22.45.58" fill="#2c72b7"/><path d="m964.07 203.41c-1.27 3.86-3 7.88-4 13.12-5.1-.34-9.46-5.86-9.46-5.86l.6-5c1.7-5.33-4.24-8.2-4.24-11.32a43.71 43.71 0 0 1 1-7.64l-26.81-7.3c3-6 9.54-10.77 21.25-9.82 26.46 2.1 25.69 21.65 21.66 33.82z" fill="#021c29"/><path d="m960.69 240.61c-1.1 1.63-5.48 7.09-14.85 7.09a20.39 20.39 0 0 1 -15.75-7l1.1-12.21c-4.65.28-8.36-.45-9-3.29a83.18 83.18 0 0 1 -1.58-12.2c-.15-2.58-.13-4.21-.13-4.21s-7.76-.29-6.13-4.6 6.61-4.79 5.18-11.62a20.77 20.77 0 0 1 1.65-13.19l26.81 7.3a43.71 43.71 0 0 0 -1 7.64c0 3.12 5.94 6 4.24 11.32l-.6 5s4.36 5.52 9.46 5.86c-1.2 5.98-1.52 13.5.6 24.11z" fill="#a07f6d"/><path d="m945.84 200.75s5.64-6.75 9.56-1.86-3 13.27-7.71 12.06z" fill="#a07f6d"/><path d="m929 212.44c-.31.12-.61.27-.94.37s-.88.25-1.33.33a3.22 3.22 0 0 0 -.54.1 7.64 7.64 0 0 1 -3.32.39 11.89 11.89 0 0 1 -2.05-.36c-.07 0-.18-.17-.16-.22a.72.72 0 0 1 .18-.36 1.44 1.44 0 0 1 .48-.24 15.07 15.07 0 0 1 3.05-.64 15.28 15.28 0 0 0 2.62-.46 8.14 8.14 0 0 0 1.61-.43 23.43 23.43 0 0 0 2.71-1.44 12.43 12.43 0 0 1 1.27-.56.37.37 0 0 1 .28.06.31.31 0 0 1 .07.27 4.5 4.5 0 0 1 -.77 1.28 10.94 10.94 0 0 1 -2.59 1.83 1.64 1.64 0 0 1 -.55.12z" fill="#7a6757"/><path d="m950.36 196.16-3.28 5.15-4.54 7c-.62.94-1.27 1.86-1.84 2.8l-2.7 4.38-1.38 2.18a6.37 6.37 0 0 1 -4.88 3 7.11 7.11 0 0 1 -1.46-.06l-1.27-.21-5.07-.87-12.51-2.26a2.89 2.89 0 0 1 -1.07-.38 2.09 2.09 0 0 1 1.08-.2c1 0 2 .09 3.12.2 3.37.37 6.73.74 10.12 1.16l5.09.67a6.21 6.21 0 0 0 2.25.08 4.71 4.71 0 0 0 1.94-.83 4.76 4.76 0 0 0 1.26-1.4l1.22-1.87 2.42-3.75 4.86-7.49c2-3.09 4.09-6.11 6.1-9.27l2.79-4.35.69-1.08.35-.55c.08-.12.08-.1.1-.15l.06-.24a16.53 16.53 0 0 0 .46-2.43 15.66 15.66 0 0 0 -.17-4.93 13.69 13.69 0 0 0 -.7-2.34 11.83 11.83 0 0 0 -1.25-2.08 13.62 13.62 0 0 0 -6.86-4.67 2.48 2.48 0 0 1 -.94-.51c0-.08.54-.08.93 0a17.64 17.64 0 0 1 2.14.54c.68.28 1.4.49 2.07.83l1 .57a4.79 4.79 0 0 1 .95.64 9.54 9.54 0 0 1 1.68 1.62 13.49 13.49 0 0 1 2.85 9.4 18.66 18.66 0 0 1 -.27 2.47c-.06.41-.15.81-.25 1.22l-.08.31a1.26 1.26 0 0 1 -.21.51l-.33.52-2.51 4c-.58.92-1.25 1.82-1.87 2.73z" fill="#0f4540"/><path d="m910.34 216.77 5.54.83" fill="none" stroke="#0f4540" stroke-linecap="round" stroke-miterlimit="10" stroke-width="3"/><path d="m807.28 201-7.59-8.77 8.71-1.55 19.94-3.53s3.12 7.43-21.06 13.85z" fill="#2ac3b4"/><path d="m812.56 206.43c-.17 2.52-4.16 1.78-4.16 1.78l-.19 3.43s-7.08-.25-8.07-.47c0 0-.08 0-.07.07.26.71 1.8 4 7.23 5.35 0 0-.69 9.51-4.14 12.15-1 .75-3.72.79-7.15.45l2.23 15.09-14.72 17.28-14.71-17.28 2-19.31c-1.55-4.16-19-21.31-9.53-38.34 6.81-12.29 31-15 37.83-9.08 10.92 9.51 6.75 15.76 7.62 19.82s6.11 4.63 5.83 9.06z" fill="#e6a47c"/><path d="m851.14 313.69s-6.15-45.42-18.93-59c-9.67-10.3-34-10.38-34-10.38l-14.69 10.69-14.71-10.72s-24.3.08-34 10.38c-12.78 13.61-11.56 59-11.56 59z" fill="#2ac3b4"/><path d="m790.34 188.94c3.14 9.25-4.33 22.54-3.13 29.71a115.8 115.8 0 0 0 3.91 15.23l-33.2 2.24s-11-50.32 12.86-60.47 19.56 13.29 19.56 13.29z" fill="#9e612b"/><path d="m808.4 190.67-8.71 1.55-44.75 7.93c-.53-11.58 5.26-26.68 26.27-29.54 20.19-2.76 26.47 16.68 27.19 20.06z" fill="#2ac3b4"/><path d="m777.8 196.12 3.42 5.33 4.61 7.33c.62 1 1.2 2 1.84 2.94l1.48 2.23c.5.75 1 1.53 1.47 2.14a9.26 9.26 0 0 0 3.91 2.85 9.38 9.38 0 0 0 4.85.52l5.29-.68 13.09-1.58a2.94 2.94 0 0 1 1.17.05 2.12 2.12 0 0 1 -1 .51c-.95.27-2 .53-3.15.74-3.46.65-6.91 1.31-10.4 1.92-1.75.3-3.46.6-5.28.87a10.6 10.6 0 0 1 -5.79-.89 11.21 11.21 0 0 1 -4-3.09c-.27-.32-.5-.67-.74-1l-.62-1-1.24-2-5-7.84c-2-3.25-4-6.5-6.08-9.77l-1.44-2.25a20.75 20.75 0 0 1 -1.37-2.4 17.2 17.2 0 0 1 -1.57-5.34 15.13 15.13 0 0 1 2.56-10.61 11.31 11.31 0 0 1 3.53-3.09 16.06 16.06 0 0 1 4.28-1.6 2.44 2.44 0 0 1 1.1 0c.05.07-.45.34-.83.47a13.47 13.47 0 0 0 -6.88 4.91 13.78 13.78 0 0 0 -2.27 8.74 15.48 15.48 0 0 0 1 4.5 14.78 14.78 0 0 0 1 2.09c.18.35.39.67.59 1l.67 1c.62.95 1.18 2 1.76 2.94z" fill="#0f4540"/><path d="m818.95 217.31-5.54.83" fill="none" stroke="#0f4540" stroke-linecap="round" stroke-miterlimit="10" stroke-width="3"/><path d="m1168.47 479.68 23.05-140.82h-531.62l15.23 140.77z" fill="#d8d5ce"/><path d="m675.11 479.63-15.18-140.77h-582.41l-23.44 140.77z" fill="#e6e2de"/><g fill="#d8d5ce"><path d="m80.8 141.93h301.3v7.98h-301.3z"/><path d="m-60.21 194.86h274.02v7.98h-274.02z" transform="matrix(0 1 -1 0 275.65 122.04)"/><path d="m245.5 194.86h274.02v7.98h-274.02z" transform="matrix(0 1 -1 0 581.36 -183.66)"/><path d="m80.8 215.56h305.71v7.98h-305.71z"/><path d="m80.8 68.29h301.3v7.98h-301.3z"/><path d="m80.8 289.2h305.71v7.98h-305.71z"/><path d="m296 93.79h33.03v6.98h-33.03z"/></g><path d="m360.51 96v38.72a7.16 7.16 0 0 1 -7.16 7.16h-23.52a4.85 4.85 0 0 1 -4-2.09l-2.56-3.71h-21.52l-2.55 3.71a4.86 4.86 0 0 1 -4 2.09h-23.51a7.17 7.17 0 0 1 -7.17-7.17v-38.71a7.17 7.17 0 0 1 7.17-7.16h21.21a4.86 4.86 0 0 1 4.85 4.86v3.45a14.76 14.76 0 0 0 14.77 14.85 14.76 14.76 0 0 0 14.76-14.76v-3.5a4.87 4.87 0 0 1 4.86-4.86h21.21a7.16 7.16 0 0 1 7.16 7.12z" fill="#fff"/><path d="m277.61 109v3.86c0 1.75 0 3.51-.07 5.26 0 .71-.06 1.42 0 2.12.16 4.35.08 8.68-.08 13-.1 2.68-.25 5.35-.39 8 0 .28-.16.74-.21.7a1 1 0 0 1 -.37-.65 16.48 16.48 0 0 1 -.26-2c-.27-4.28-.53-8.54-.43-13 .09-3.75.06-7.52.13-11.28.05-2.33.16-4.64.15-7 0-4.35 0-8.7.14-13 0-1.85.25-3.67.41-5.49 0-.27.14-.63.23-.66s.22.32.24.57c.18 1.81.41 3.62.47 5.47.12 4 .16 8 .22 11.94 0 .69-.06 1.39-.1 2.09z" fill="#e6e2de"/><path d="m283.27 121.86c0-1.29 0-2.57 0-3.86 0-1.75 0-3.51.06-5.26 0-.71.07-1.42 0-2.12-.16-4.35-.07-8.68.09-13 .1-2.68.24-5.35.38-8 0-.28.16-.74.22-.7a1.09 1.09 0 0 1 .36.65 14.45 14.45 0 0 1 .26 2c.27 4.28.54 8.54.43 12.95-.09 3.75-.05 7.52-.13 11.28 0 2.33-.15 4.64-.14 7 0 4.35 0 8.7-.14 13-.05 1.85-.26 3.67-.41 5.49a1.25 1.25 0 0 1 -.23.66c-.08 0-.23-.32-.25-.57-.17-1.81-.4-3.62-.46-5.47-.13-4-.17-8-.23-11.94 0-.69.07-1.39.11-2.09z" fill="#e6e2de"/><path d="m341.77 109v3.86c0 1.75 0 3.51-.06 5.26 0 .71-.06 1.42 0 2.12.16 4.35.07 8.68-.09 13-.1 2.68-.24 5.35-.38 8 0 .28-.16.74-.22.7a1.09 1.09 0 0 1 -.36-.65 14.67 14.67 0 0 1 -.26-2c-.27-4.28-.54-8.54-.43-13 .09-3.75.05-7.52.13-11.28 0-2.33.15-4.64.14-7 0-4.35.05-8.7.14-13 .05-1.85.26-3.67.41-5.49a1.25 1.25 0 0 1 .23-.66c.08 0 .23.32.25.57.17 1.81.4 3.62.46 5.47.13 4 .17 8 .23 11.94 0 .69-.07 1.39-.11 2.09z" fill="#e6e2de"/><path d="m347.43 121.86c0-1.29 0-2.57 0-3.86 0-1.75 0-3.51.07-5.26 0-.71.06-1.42 0-2.12-.16-4.35-.08-8.68.08-13 .1-2.68.25-5.35.39-8 0-.28.16-.74.22-.7a1.09 1.09 0 0 1 .36.65 16.21 16.21 0 0 1 .26 2c.27 4.28.54 8.54.43 12.95-.09 3.75 0 7.52-.13 11.28-.05 2.33-.15 4.64-.15 7 0 4.35 0 8.7-.14 13 0 1.85-.25 3.67-.41 5.49a1.18 1.18 0 0 1 -.22.66c-.08 0-.23-.32-.25-.57-.18-1.81-.41-3.62-.46-5.47-.13-4-.17-8-.23-11.94 0-.69.07-1.39.1-2.09z" fill="#e6e2de"/><path d="m323.45 180.43h29.93v35.14h-29.93z" fill="#fff"/><path d="m353 206h-3.7l-5-.06c-.65 0-1.38 0-2.08-.12a10.81 10.81 0 0 1 -8.23-5 14.37 14.37 0 0 1 -.78-1.44l-.63-1.41c-1-2.32-2-4.66-3-7-.1-.24-.16-.69-.1-.69a1 1 0 0 1 .6.4 13.54 13.54 0 0 1 1.06 1.55c1 1.76 2 3.52 3 5.31l.72 1.33a10.19 10.19 0 0 0 .76 1.17 11.7 11.7 0 0 0 1.94 2 9.24 9.24 0 0 0 4.39 2 15.65 15.65 0 0 0 2.53.15h2.67c2.19 0 4.43.16 6.6.13a3.78 3.78 0 0 0 3.52-3.25 3.56 3.56 0 0 0 0-1.3 5.25 5.25 0 0 0 -.49-1.3l-1.31-2.8c-.73-1.59-1.3-3.23-1.92-4.84-.1-.25-.14-.61-.07-.66s.33.17.46.37c.91 1.46 1.87 2.9 2.7 4.45l1.32 2.49a14.84 14.84 0 0 1 .66 1.37 5.22 5.22 0 0 1 .33 1.67 5.19 5.19 0 0 1 -6 5.42z" fill="#e9e7e1"/><path d="m213.76 106.79h29.93v35.14h-29.93z" fill="#fff" transform="matrix(-1 0 0 -1 457.45 248.71)"/><path d="m214.18 130.66h3.65l5 .06a9.5 9.5 0 0 0 7.08-2.28 10.3 10.3 0 0 0 1.95-2.06 13.83 13.83 0 0 0 .76-1.22l.73-1.36c1.21-2.24 2.46-4.44 3.7-6.65.13-.23.45-.56.49-.5a1 1 0 0 1 .05.72 12.77 12.77 0 0 1 -.59 1.78c-.77 1.88-1.55 3.76-2.37 5.62-.21.48-.4.92-.64 1.42a10.57 10.57 0 0 1 -.85 1.45 10.23 10.23 0 0 1 -2.36 2.42 11.9 11.9 0 0 1 -5.31 2.22 16 16 0 0 1 -2.81.14h-2.67c-2.23-.06-4.36-.14-6.67-.16a5.05 5.05 0 0 1 -3.24-1.37 5.11 5.11 0 0 1 -1.56-3.13 4.79 4.79 0 0 1 .11-1.77 6.52 6.52 0 0 1 .64-1.56l1.42-2.74c.81-1.55 1.77-3 2.67-4.48.13-.23.39-.48.48-.46s.06.36 0 .59c-.6 1.62-1.15 3.26-1.87 4.86l-1.18 2.56a4.77 4.77 0 0 0 -.69 2.31 3.51 3.51 0 0 0 2.46 3.32 6.37 6.37 0 0 0 1.65.27z" fill="#e9e7e1"/><path d="m281.07 163.62a.09.09 0 0 1 -.1-.09v-7.53h-8.87v9.2a6.75 6.75 0 0 1 -1.94 4.73l-5.66 5.74a25.88 25.88 0 0 0 -7.44 18.16v21.78h39.4v-36.61a15.4 15.4 0 0 0 -15.39-15.38zm9.39 22.14h-9.46v-16.14h.19a9.31 9.31 0 0 1 9.3 9.3z" fill="#fff"/><path d="m275.45 159.32h.65s.58 0 .88.07a1.34 1.34 0 0 0 .35 0 5 5 0 0 1 2.18.08c.45.1.89.25 1.34.39 0 0 .12.16.12.21a1 1 0 0 1 -.11.37 1 1 0 0 1 -.33.26 4.51 4.51 0 0 1 -2.17.43c-.63-.09-1.26-.06-1.89-.13a9.13 9.13 0 0 0 -1.17-.15 13.38 13.38 0 0 1 -2.18-.14 3.1 3.1 0 0 1 -.92-.41.32.32 0 0 1 0-.47 3.16 3.16 0 0 1 .91-.47c.67-.12 1.33-.16 2-.22.12 0 .23.07.35.1z" fill="#e9e7e1"/><path d="m150.5 100.21h13.75v41.71h-13.75z" fill="#e6e2de"/><path d="m150.5 100.21h13.75v12.01h-13.75z" fill="#d8d5ce"/><path d="m155.71 111.37h1l1.36.07a3.39 3.39 0 0 0 .55 0 12.27 12.27 0 0 1 3.37.08c.7.1 1.39.25 2.08.39a.31.31 0 0 1 .18.22.61.61 0 0 1 -.17.36 1.45 1.45 0 0 1 -.51.26 10 10 0 0 1 -3.35.43c-1-.09-1.95 0-2.93-.13a18.14 18.14 0 0 0 -1.81-.14c-1.13 0-2.26 0-3.38-.15a6.41 6.41 0 0 1 -1.43-.41.32.32 0 0 1 -.17-.22.36.36 0 0 1 .15-.25 5.88 5.88 0 0 1 1.42-.46c1-.13 2.06-.17 3.09-.23a2.65 2.65 0 0 1 .55.1z" fill="#f6f4f4"/><path d="m174.56 100.21h13.75v41.71h-13.75z" fill="#e6e2de"/><path d="m174.56 100.21h13.75v12.01h-13.75z" fill="#c6c1b5"/><path d="m179.76 111.37h1l1.36.07a3.48 3.48 0 0 0 .55 0 12.27 12.27 0 0 1 3.37.08c.7.1 1.39.25 2.08.39.08 0 .2.16.19.22a.67.67 0 0 1 -.17.36 1.64 1.64 0 0 1 -.51.26 10.12 10.12 0 0 1 -3.36.43c-1-.09-2 0-2.92-.13-.61 0-1.21-.15-1.82-.14-1.13 0-2.26 0-3.38-.15a6.19 6.19 0 0 1 -1.42-.41.3.3 0 0 1 -.17-.22.32.32 0 0 1 .14-.25 5.88 5.88 0 0 1 1.42-.46c1-.13 2.07-.17 3.1-.23a2.56 2.56 0 0 1 .54.1z" fill="#f6f4f4"/><path d="m219.27 203c-5.16 0-5.87 3.86-13.67 7.14s-39.66 5.46-60.63 5.46-42.69-3.92-46.43-7.2-9.77-5.4-9.77-5.4c2.31 0 8.71-8.3 21.51-11.2s39.56 4.05 53.25 4.05 28.72-5.79 38.85-.57 12.62 7.72 16.89 7.72z" fill="#e6e2de"/><path d="m166.84 207.19c-3.05.11-6.1.2-9.15.21-4.18 0-8.35-.11-12.51-.28l-5-.23c-10.32-.26-20.59-1-30.81-1.78-6.34-.52-12.65-1.11-19-1.73a6.36 6.36 0 0 1 -1.64-.35 4.39 4.39 0 0 1 1.58-.24c1.43 0 3.05 0 4.66.09 10.13.47 20.24.87 30.65 1.57 8.86.57 17.79 1 26.66 1.2 5.52.15 11 .13 16.56-.1 10.27-.43 20.57-1.1 30.81-1.84 4.37-.32 8.68-.49 13-.75a5.23 5.23 0 0 1 1.57.07c.06.08-.72.3-1.31.38-4.26.59-8.51 1.2-12.88 1.62-9.37.9-18.81 1.62-28.25 2.11-1.64.1-3.31.07-5 .1z" fill="#fff"/><path d="m271.85 234.78h81.33v54.13h-81.33z" fill="#d8d5ce"/><path d="m309.57 255.26v3.93c0 1.79 0 3.59-.06 5.38 0 .72-.07 1.45 0 2.15.15 4.44.07 8.87-.09 13.28-.1 2.74-.24 5.46-.38 8.19 0 .28-.17.75-.22.71a1 1 0 0 1 -.36-.67 14.91 14.91 0 0 1 -.26-2c-.27-4.37-.54-8.72-.43-13.22.09-3.82.05-7.67.12-11.5.05-2.39.16-4.74.15-7.15 0-4.43 0-8.88.14-13.31 0-1.88.26-3.74.41-5.59 0-.28.14-.65.23-.68s.22.33.25.58c.17 1.85.4 3.7.46 5.59.13 4 .17 8.12.23 12.18 0 .7-.07 1.42-.11 2.13z" fill="#dcdad1"/><path d="m308.72 234.78h-36.87l-13.49 14.92h36.85z" fill="#e6e2de"/><path d="m308.72 234.78h44.46l8.72 22.56h-44.45z" fill="#e6e2de"/><path d="m168.42 234.78h81.33v54.13h-81.33z" fill="#e6e2de"/><path d="m228.19 255.26v3.93c0 1.79 0 3.59-.06 5.38 0 .72-.06 1.45 0 2.15.16 4.44.07 8.87-.09 13.28-.1 2.74-.24 5.46-.38 8.19 0 .28-.16.75-.22.71a1.09 1.09 0 0 1 -.36-.67 14.91 14.91 0 0 1 -.26-2c-.27-4.37-.54-8.72-.43-13.22.09-3.82.05-7.67.13-11.5 0-2.39.15-4.74.14-7.15 0-4.43 0-8.88.14-13.31.05-1.88.26-3.74.41-5.59a1.3 1.3 0 0 1 .23-.68c.08 0 .23.33.25.58.17 1.85.4 3.7.46 5.59.13 4 .17 8.12.23 12.18 0 .7-.07 1.42-.1 2.13z" fill="#dcdad1"/><path d="m134.23 91.4v50.52h-35.66v-25.38a10.93 10.93 0 0 1 7.9-10.49l13.26-3.81a4.56 4.56 0 0 0 3.27-4.39v-2.15h-.11v-4.3z" fill="#fff"/><path d="m112.36 128.81c.87.32 1.73.63 2.59 1 1.18.45 2.35.92 3.52 1.38.47.19.94.42 1.41.57a91.66 91.66 0 0 1 8.72 3.34c1.77.76 3.51 1.57 5.26 2.37.18.08.44.33.39.38a.75.75 0 0 1 -.56.17 7.21 7.21 0 0 1 -1.41-.25 72.35 72.35 0 0 1 -8.86-2.84c-2.49-1-5-1.93-7.54-2.94-1.55-.63-3.07-1.31-4.66-1.89q-4.39-1.62-8.72-3.4c-1.22-.51-2.37-1.16-3.54-1.76-.18-.09-.38-.3-.36-.38s.29-.13.46-.09c1.28.29 2.58.53 3.84.94 2.71.87 5.41 1.83 8.11 2.78.47.16.91.41 1.37.62z" fill="#e9e7e1"/><path d="m121.05 119.53-2.48-.91c-1.12-.43-2.24-.88-3.35-1.32-.45-.18-.89-.4-1.35-.55a84.42 84.42 0 0 1 -8.32-3.19c-1.69-.73-3.35-1.51-5-2.28-.17-.08-.41-.33-.37-.37a.69.69 0 0 1 .55-.18 7.44 7.44 0 0 1 1.35.22 68.72 68.72 0 0 1 8.47 2.7c2.37 1 4.81 1.85 7.19 2.82 1.48.6 2.92 1.25 4.44 1.81 2.8 1 5.58 2.12 8.33 3.25 1.17.48 2.26 1.12 3.38 1.7.16.08.35.28.34.37s-.28.13-.45.1c-1.23-.28-2.47-.49-3.68-.88-2.59-.83-5.16-1.75-7.74-2.64-.45-.16-.87-.4-1.3-.6z" fill="#e9e7e1"/><path d="m127.21 94.33h.82l1.12.06a1.71 1.71 0 0 0 .45 0 8.31 8.31 0 0 1 2.77.09c.57.1 1.14.24 1.71.38a.33.33 0 0 1 .15.22.7.7 0 0 1 -.14.36 1 1 0 0 1 -.42.26 6.91 6.91 0 0 1 -2.76.43c-.8-.09-1.6 0-2.4-.12a12.53 12.53 0 0 0 -1.49-.15 21.48 21.48 0 0 1 -2.78-.14 5 5 0 0 1 -1.17-.41.29.29 0 0 1 -.14-.23.4.4 0 0 1 .12-.25 5 5 0 0 1 1.17-.46c.84-.13 1.69-.17 2.54-.23a1.36 1.36 0 0 1 .44.11z" fill="#e9e7e1"/><path d="m215 220.39-.26-.04" fill="none" stroke="#000" stroke-linecap="round" stroke-miterlimit="10"/><path d="m550 476.49a15.64 15.64 0 0 1 -.33 3.14h230.8c-61.7-55.5-214.87-45.44-215.81-70.87-.51-13.73 48-25.9 48-53.39 0-13.73-26.22-14.94-26.22-14.94h-127.85c-8 0-30.65 19.12 5.93 22.2 35.26 3 58.5 1.15 58.5 10.13 0 14.08-101.6 2.35-101.6 42.48s128.58 34.06 128.58 61.25z" fill="#88c9e8"/><path d="m515.09 30.69v57.89h-8.77v-55.49a2.52 2.52 0 0 0 -2.52-2.52h-23.92a4.38 4.38 0 0 1 -4.38-4.38 4.38 4.38 0 0 1 4.38-4.39h26.31a8.9 8.9 0 0 1 8.9 8.89z" fill="#464f53"/><path d="m538.07 59.82v57.89h-8.77v-55.49a2.52 2.52 0 0 0 -2.52-2.52h-20.38v-8.77h22.77a8.89 8.89 0 0 1 8.9 8.89z" fill="#464f53"/><path d="m589.84 356.16h-98.82l-29.05-17.03v-257.66h127.87z" fill="#6b746b"/><path d="m508.17 281.63a5.52 5.52 0 0 0 -1.16 2 5.31 5.31 0 0 0 -.05 3.11 3.84 3.84 0 0 0 .52 1.17 5.63 5.63 0 0 0 3.17 2.18 5.46 5.46 0 0 0 3.84-.44 5.53 5.53 0 0 0 2.92-4c0-.18.19-.48.25-.46a.65.65 0 0 1 .33.48 3.58 3.58 0 0 1 0 1.49 6.42 6.42 0 0 1 -2.89 4 6.26 6.26 0 0 1 -5.13.64 7 7 0 0 1 -3.64-2.62 6.56 6.56 0 0 1 -1.24-4.27 7 7 0 0 1 2.48-4.79 6.45 6.45 0 0 1 4.74-1.51 6.38 6.38 0 0 1 4.36 2.26 5.53 5.53 0 0 1 1.21 3.83c0 .2-.12.46-.2.47s-.24-.21-.27-.37a6.23 6.23 0 0 0 -1.7-3 5.12 5.12 0 0 0 -6.47-.79 10.64 10.64 0 0 0 -1 .69z" fill="#464f53"/><path d="m490.13 252.23q0-10 0-19.95 0-13.64.06-27.28c0-3.65.07-7.35 0-10.94-.16-22.53-.07-45 .09-67.39q.15-20.85.38-41.55a28.62 28.62 0 0 1 .22-3.63 17.75 17.75 0 0 1 .36 3.4c.12 3.1.22 6.64.26 10.17.27 22.16.54 44.25.43 67.09-.09 19.41 0 38.95-.13 58.39 0 12.09-.15 24-.14 36.27 0 22.5 0 45.06-.14 67.52 0 9.58-.26 19-.41 28.42a24.19 24.19 0 0 1 -.23 3.41 15.16 15.16 0 0 1 -.25-3c-.17-9.38-.4-18.74-.46-28.33-.13-20.54-.17-41.2-.23-61.82 0-3.58.07-7.21.11-10.82z" fill="#464f53"/><path d="m552.43 255.13h-7.18c-3.27 0-6.54 0-9.81-.06-1.32 0-2.65-.07-3.94 0-8.11.16-16.19.07-24.25-.09-5-.1-10-.24-15-.38a3.73 3.73 0 0 1 -1.31-.22 2.84 2.84 0 0 1 1.23-.36c1.11-.12 2.39-.22 3.66-.26 8-.27 15.93-.54 24.14-.43 7 .09 14 .05 21 .13 4.35 0 8.65.15 13.05.14 8.1 0 16.22.05 24.3.14 3.45.05 6.84.26 10.23.41a3.52 3.52 0 0 1 1.22.23c0 .08-.58.23-1.05.25-3.38.17-6.75.4-10.2.46-7.39.13-14.83.17-22.25.23-1.29 0-2.59-.07-3.89-.11z" fill="#464f53"/><path d="m520.31 152.81h-8.31-4.8v4.94c0 1.53-.06 3.08 0 4.58l.07 4.29h4.95 5.77l11.53.14 17.37.39a4.88 4.88 0 0 1 1.52.22 3.66 3.66 0 0 1 -1.43.36c-1.29.12-2.77.21-4.25.26-9.26.27-18.5.54-28 .43l-9.16-.06c0-5.75 0-11.51.06-17.25h1.34l7.81.09 7.6.05h13l13.62.09v2.75c0 4-.25 7.94-.41 11.88a4.09 4.09 0 0 1 -.23 1.42 2.85 2.85 0 0 1 -.24-1.23c-.18-3.92-.41-7.84-.47-11.84v-1.19a2.07 2.07 0 0 0 0-.27v-.11l-10.91.11-11.74.08c-1.5 0-3-.07-4.53-.1z" fill="#464f53"/><path d="m606 304.57a6.55 6.55 0 0 1 -6.55 6.55h-87.63a4.37 4.37 0 0 1 0-8.73h81.88a1.42 1.42 0 0 0 1.14-2.28l-5-6.69v-12.63l14.84 19.86a6.5 6.5 0 0 1 1.32 3.92z" fill="#464f53"/><path d="m606 326.62a6.55 6.55 0 0 1 -6.55 6.55h-87.63a4.37 4.37 0 0 1 0-8.73h81.88a1.42 1.42 0 0 0 1.14-2.28l-5-6.69v-12.63l14.84 19.86a6.5 6.5 0 0 1 1.32 3.92z" fill="#464f53"/><rect fill="#c6c1b5" height="89.99" rx="6.4" width="137.79" x="892.32" y="252.42"/><path d="m948.54 368.1h32.22a2.19 2.19 0 0 0 2-1.21l7.54-15.33a2.17 2.17 0 0 0 -1.94-3.13h-59.2a2.16 2.16 0 0 0 -1.94 3.13l4.55 9.25 13.32.34z" fill="#c6c1b5"/><path d="m968.03 355.58h-18.64l2-69.43h14.64z" fill="#c6c1b5"/><path d="m968.03 355.58h-18.64l2-69.43h14.64z" fill="#c6c1b5"/><path d="m965.3 290.48-.11-3.48h-7.36-5.62l-.33 9.83c-.07 2.29-.2 4.61-.24 6.86-.24 14.12-.74 28.19-1.3 42.23-.13 3-.26 6.1-.39 9.13l15.79.25a11.44 11.44 0 0 1 2.28.22 7.26 7.26 0 0 1 -2.14.36c-1.94.12-4.15.22-6.37.26l-10.88.19c.08-5.52.17-11 .25-16.61.11-5.32.25-10.67.45-16.08.39-12.18.79-24.44 1.18-36.64l.06-1.69 16.17.12q.1 3.9.2 7.88.64 21.17 1.08 42.32c.13 6 .09 11.91.11 17.82a9.8 9.8 0 0 1 -.17 2.14 6 6 0 0 1 -.3-1.84c-.34-5.87-.74-11.73-1-17.74-.44-12.87-.89-25.81-1.34-38.73-.07-2.24-.06-4.52-.09-6.78z" fill="#d8d5ce"/><path d="m804.24 359.47h-98.49l-19.2-64.67c-.88-3 1.08-6 3.85-6h89.92a4.14 4.14 0 0 1 3.85 3.13z" fill="#c6c1b5"/><path d="m328.44 479.63c-18.72-41.87-44-94.05-62.21-111.15-20.48-19.28-138.43-36-188.36-43.07-22.17-3.12-43.91 9.9-53.45 25.23-19.08 30.68-23.54 121.56-23.88 128.99z" fill="#67326b"/><path d="m241.18 251.87c-.79 2.36 3.54 6.43.26 8.79 0 0 1.78 1 .87 4.11s-4.35 1.78-4.28 7.16c.07 4.59.92 14.81-10.09 21.63-5.5 3.41-14.21 4.68-21.55 5.11-.76 11.08-2.71 39.68-4 59.65l-30.34-5.84c-4.92-5.64-9.87-9.44-9.75-16.89.2-12.54 6.06-9.3 6.26-19.82s-16.17-18.28-12.73-27.53c0 0 40-19.92 33.07-44.16 15-21.26 10.88-30 5.44-40.54l33.51-20.81.18-.11a34.7 34.7 0 0 1 3.44 7.35c5.79 17.62-.85 26.38 1.08 34s11 7.06 15 14.14-5.55 11.4-6.37 13.76z" fill="#9e612b"/><path d="m201.36 300.13c-.32 0-.65 0-1 0s-.9-.06-1.34-.1a2 2 0 0 0 -.54-.06 7.2 7.2 0 0 1 -3.29-.21 18.94 18.94 0 0 1 -2-.67.49.49 0 0 1 -.15-.34 1.18 1.18 0 0 1 .2-.53 1.37 1.37 0 0 1 .51-.36 6.81 6.81 0 0 1 3.24-.52c.93.15 1.86.1 2.8.22a12.7 12.7 0 0 0 1.74.2 25.43 25.43 0 0 1 3.26.11 5.21 5.21 0 0 1 1.4.55.51.51 0 0 1 .18.33.59.59 0 0 1 -.12.38 4.94 4.94 0 0 1 -1.35.76 23.89 23.89 0 0 1 -3 .44 1.46 1.46 0 0 1 -.53-.15z" fill="#643d1a"/><path d="m232.66 216c-11 1.74-19.65 9.14-19.65 9.14s2.51-6.77 7.52-10 12.13-3.78 12.13.86z" fill="#021c29"/><path d="m207.33 368.14 1.34-46.53-44.77-8.78-38.98 48.22z" fill="#67326b"/><path d="m174.75 342-6.13-1.36-8.35-2c-1.12-.27-2.23-.64-3.34-.84a209.41 209.41 0 0 1 -20.63-5c-2.1-.62-4.2-1.24-6.28-1.92s-4.15-1.34-6.24-2.17c-.44-.19-1-.71-.94-.79a1.92 1.92 0 0 1 1.28-.32 30 30 0 0 1 3.15.39c6.83 1.28 13.72 2.31 20.66 4.16 5.9 1.57 11.91 2.85 17.84 4.35 3.69.93 7.3 2 11.07 2.78 6.91 1.51 13.81 3.16 20.67 4.88 2.92.74 5.73 1.79 8.56 2.74a2.93 2.93 0 0 1 .68.36c.17.14.23.23.17.28a2.66 2.66 0 0 1 -.45.18 1.93 1.93 0 0 1 -.48.15c-2.94-.31-5.92-.5-8.89-1-6.37-1.15-12.73-2.48-19.09-3.78-1.11-.23-2.19-.63-3.28-.95z" fill="#412244"/><path d="m237.81 464.07c-.55-1.23-1.11-2.46-1.63-3.71-.71-1.7-1.38-3.42-2.06-5.14-.27-.69-.45-1.43-.78-2.08a86.65 86.65 0 0 1 -5-12.73c-.85-2.7-1.59-5.42-2.32-8.15-.07-.28 0-.84.16-.84a1.24 1.24 0 0 1 .91.39 8.86 8.86 0 0 1 1.22 1.74 93.23 93.23 0 0 1 5.77 12.29c1.32 3.7 2.91 7.31 4.32 11 .87 2.28 1.63 4.58 2.65 6.84 1.86 4.15 3.64 8.35 5.37 12.55a53.18 53.18 0 0 1 1.72 5.55c.08.28 0 .73-.12.82s-.55-.11-.7-.33a43.8 43.8 0 0 1 -3.29-4.8c-2-3.67-3.81-7.46-5.61-11.24a18.46 18.46 0 0 1 -.7-2.1z" fill="#412244"/><circle cx="225.96" cy="229.87" fill="#021c29" r="3.75"/><path d="m226.67 227.05c-.2.2-.38.43-.6.62l-.89.79c-.11.12-.3.18-.36.33a6.87 6.87 0 0 1 -1.72 2.44c-.46.46-1 .93-1.42 1.43a.8.8 0 0 1 -.47 0 1.71 1.71 0 0 1 -.64-.37 1.31 1.31 0 0 1 -.32-.68 4.62 4.62 0 0 1 .82-3.56 22.54 22.54 0 0 1 2.1-2.35c.51-.42 1.11-.72 1.58-1.16a9 9 0 0 1 3-1.83 3.93 3.93 0 0 1 1.66.08.72.72 0 0 1 .33.34.93.93 0 0 1 .08.52 5.38 5.38 0 0 1 -.72 1.4c-.64.67-1.32 1.22-1.9 1.89-.1.11-.32.1-.49.14z" fill="#021c29"/><path d="m233.34 258.65.9.1c.41.06.82.13 1.24.17.17 0 .34.12.5.08a9.78 9.78 0 0 1 3.15-.08l2 .22a.51.51 0 0 1 .24.28 1.16 1.16 0 0 1 0 .57 1.3 1.3 0 0 1 -.43.49 5.84 5.84 0 0 1 -3.32 1.08c-1-.07-2 0-3-.19-.63-.12-1.22-.35-1.85-.44a9.08 9.08 0 0 1 -3.33-1.17c-.45-.23-.73-.79-1-1.2a.49.49 0 0 1 0-.37.62.62 0 0 1 .32-.25 7.35 7.35 0 0 1 1.46-.05 27.17 27.17 0 0 0 2.7.46c.16 0 .3.15.45.23z"/><path d="m220.33 258.23a6.42 6.42 0 0 1 .09-.87 7.65 7.65 0 0 1 .32-1.16c0-.16.17-.3.17-.46a4.18 4.18 0 0 1 1.27-2.69 5.9 5.9 0 0 1 1.55-1.12.45.45 0 0 1 .34.12 2.25 2.25 0 0 1 .29.48 1.49 1.49 0 0 1 0 .53 6.4 6.4 0 0 1 -.63 2.33 8.24 8.24 0 0 0 -.75 1.92 4.35 4.35 0 0 0 -.37 1.29c0 .83-.1 1.67-.18 2.54a3.6 3.6 0 0 1 -.46 1.17.52.52 0 0 1 -.32.19.62.62 0 0 1 -.38-.05 3.71 3.71 0 0 1 -.84-1.09 9.58 9.58 0 0 1 -.3-1.31c-.05-.45-.09-.9-.12-1.36 0-.16.13-.31.2-.47z" fill="#643d1a"/><path d="m641.31 185q1.83 17.66 3.67 35.33 2.49 24.14 4.95 48.29c.66 6.47 1.28 13 2 19.38q6.45 59.81 12.29 119.32 3.69 36.93 7.26 73.6c.25 2.54.54 6.77.45 6.46a57 57 0 0 1 -1-6c-.69-5.47-1.43-11.72-2.12-18-4.34-39.21-8.67-78.3-12.76-118.74-3.47-34.38-7.1-69-10.6-103.4-2.18-21.4-4.26-42.56-6.52-64.22-4.15-39.85-8.24-79.79-12.27-119.57-1.72-17-3.23-33.66-4.81-50.36-.24-2.5-.46-5.85-.4-6a47.56 47.56 0 0 1 .79 5.19c1.89 16.59 3.84 33.15 5.66 50.11 3.9 36.35 7.74 72.93 11.59 109.43.66 6.33 1.26 12.77 1.88 19.16z" fill="#e9e7e1"/><path d="m656.3 303.05q-1.84-17.66-3.68-35.33-2.48-24.15-4.94-48.29c-.67-6.48-1.29-13-2-19.39q-6.45-59.79-12.3-119.32-3.69-36.91-7.25-73.6c-.25-2.53-.54-6.76-.46-6.45a53.84 53.84 0 0 1 1 6c.69 5.46 1.43 11.72 2.13 18 4.34 39.21 8.66 78.3 12.75 118.74 3.48 34.37 7.11 69 10.6 103.39 2.18 21.41 4.27 42.56 6.52 64.23 4.16 39.84 8.24 79.79 12.27 119.56 1.72 17 3.24 33.67 4.82 50.37.23 2.5.46 5.84.39 6a45.3 45.3 0 0 1 -.78-5.18c-1.9-16.59-3.85-33.15-5.67-50.12-3.9-36.34-7.74-72.93-11.58-109.43-.67-6.33-1.26-12.77-1.89-19.16z" fill="#e9e7e1"/><path d="m227.87 182.73-33.51 20.81c5.44 10.55 9.56 19.28-5.44 40.54 6.9 24.24-33.07 44.16-33.07 44.16-3.44 9.25 12.94 17 12.73 27.53s-6.06 7.28-6.26 19.82c-.12 7.45 4.83 11.25 9.75 16.89a35.24 35.24 0 0 1 8.44 15.86c3.94 16.67-10.51 61.06-59.87 56-40.35-4.14-60.08-26.15-55.79-44.05 3.12-13 7.9-12.94 10.53-23s-12.13-18-4.24-32.75 23-13.14 28.5-19.82-1.41-10.71 2.25-18.19 18.57-7.3 18.57-7.3-26.74-36.73-16-71.57c11.54-37.78 47.54-50.79 72.04-50.79 23 0 42.75 11.38 51.55 25.75z" fill="#021c29"/><path d="m190.82 238.89s-8.69-6.72-13.27 0 3 28.25 17.1 24z" fill="#9e612b"/><path d="m427.6 234.56-14.6 112.44a5.3 5.3 0 0 1 -5.93 4.58l-58.78-7.58a5.29 5.29 0 0 1 -4.61-5.13 4.46 4.46 0 0 1 0-.81l14.56-112.48a5.29 5.29 0 0 1 5.96-4.58l58.8 7.62a5.3 5.3 0 0 1 4.6 5.94z" fill="#f7f5f5"/><path d="m345.84 299.83h69.91a0 0 0 0 1 0 0v42.88a5.3 5.3 0 0 1 -5.3 5.3h-59.31a5.3 5.3 0 0 1 -5.3-5.3v-42.88a0 0 0 0 1 0 0z" fill="#e6e2de" transform="matrix(.99173846 .12827634 -.12827634 .99173846 44.71 -46.18)"/><path d="m417.08 315.82-4.08 31.18a5.3 5.3 0 0 1 -5.93 4.58l-58.78-7.58a5.29 5.29 0 0 1 -4.61-5.13c16.14-8.33 40.91-8.18 41.59-15.81.46-5.12-3.42-6.82-17.92-10.87s-5.48-9.6-1-9l39.85 5.57s6.8 2 10.88 7.06z" fill="#88c9e8"/><path d="m370.61 225.58h52.45v84.33h-52.45z" fill="#6b746b" transform="matrix(.99 .13 -.13 .99 37.64 -48.71)"/><rect fill="#f6f4f4" height="24.67" rx="1.4" transform="matrix(.12827634 -.99173846 .99173846 .12827634 111.79 617.67)" width="24.65" x="394.93" y="232.9"/><path d="m403.84 243.08a12 12 0 0 1 .46-1.59l10.11 1.94c.4-2.43 0-5-3.82-5.82-4.47-1-5.77 2.5-5.77 2.5l-6.49-.7c-.25 1.69 3.1 2.98 5.51 3.67z" fill="#21998d"/><path d="m412.55 253.75-5 1.82-1.65-2c-1.35.23-7.86-.18-10.38 2.59l21 2.71a1.39 1.39 0 0 0 1.56-1.2l.09-.69c-2.23-1.4-5.03-2.28-5.62-3.23z" fill="#21998d"/><circle cx="380.32" cy="274.36" fill="none" r="3.29" stroke="#464f53" stroke-linecap="round" stroke-miterlimit="10"/><path d="m419.76 289.73a1.82 1.82 0 0 1 -2 1.58l-38.94-5a1.83 1.83 0 1 1 .47-3.62l38.94 5a1.82 1.82 0 0 1 1.53 2.04z" fill="#464f53"/><path d="m418.79 297.3a1.83 1.83 0 0 1 -2 1.58l-38.95-5a1.83 1.83 0 1 1 .47-3.62l38.94 5a1.83 1.83 0 0 1 1.54 2.04z" fill="#464f53"/><path d="m397.93 279.49a16.91 16.91 0 0 1 -6.73 6 28.49 28.49 0 0 1 -5.43 2.06 19.63 19.63 0 0 1 -5.93.69 14.2 14.2 0 0 1 -2.42-.32l-1.19-.24-1.17-.32a14.54 14.54 0 0 1 -6.68-3.73 12.32 12.32 0 0 1 -3.6-7.07c-.68-5.55 2.11-10.33 5.6-13.5a24.91 24.91 0 0 1 7.3-4.55 33.81 33.81 0 0 1 8-2.18c.56-.08 1.56.15 1.52.33a2.24 2.24 0 0 1 -1.05 1.35l-1.67.91c-.59.29-1.18.59-1.77.87a25.87 25.87 0 0 0 -9.38 7 15.5 15.5 0 0 0 -2.62 4.64 12.62 12.62 0 0 0 -.57 2.47c0 .39 0 .76-.05 1.15s0 .77.12 1.15a8.47 8.47 0 0 0 5.48 6.09 13.41 13.41 0 0 0 4.52.88 18.33 18.33 0 0 0 4.78-.68 24.05 24.05 0 0 0 5.76-2.44 8.69 8.69 0 0 0 3.75-4.22 6.5 6.5 0 0 0 -.06-4.81 10.37 10.37 0 0 0 -3.32-4.2 26.7 26.7 0 0 0 -11-4.77c-1.72-.33-3.44-.66-5.2-.86a18 18 0 0 0 -5.28 0c-.5.11-1.31 0-1.46-.18s.35-.85.84-1.12a20.23 20.23 0 0 1 5.62-1.73 21.64 21.64 0 0 1 5.91-.17 29.49 29.49 0 0 1 12.29 4.09 16.7 16.7 0 0 1 5.16 4.92 12.15 12.15 0 0 1 2.07 7.48 10.38 10.38 0 0 1 -2 5.09z" fill="#ee4f8d"/><path d="m427.6 234.56-14.6 112.44a5.3 5.3 0 0 1 -5.93 4.58l-58.78-7.58a5.29 5.29 0 0 1 -4.61-5.13 4.46 4.46 0 0 1 0-.81l14.56-112.48a5.29 5.29 0 0 1 5.96-4.58l58.8 7.62a5.3 5.3 0 0 1 4.6 5.94z" fill="none" stroke="#fff" stroke-linecap="round" stroke-miterlimit="10" stroke-width="5"/><path d="m438.3 365.52-16.78 7.92-1-67.3 1-8.17 1.05-8.47c6.86 8 19.52 23.07 20.74 27.54 2.2 7.9-1.83 33.62-5.01 48.48z" fill="#9e612b"/><path d="m423.94 319.11c4 6.88 16.44 21.71 17.16 28.84s-4.67 42.42-24.1 104.23l-40-8.33a473.58 473.58 0 0 0 26.83-52.27c-1.32-6.32-3.7-20.51-3.65-30.36.06-11.7 6.66-21.86 7.72-27.64s-3.66-20.36-4.52-28.82c-.56-5.47.71-10.9 3.94-11.88 2.46-.75 6.64 5.38 8.73 11.3s5.16 10.71 7.89 14.93z" fill="#9e612b"/><path d="m425.82 325.06c-.33-.47-.68-.93-1-1.42-.42-.67-.82-1.36-1.21-2.05a5.46 5.46 0 0 0 -.46-.86 17.89 17.89 0 0 1 -2.9-5.07c-.45-1.13-.83-2.29-1.21-3.45a.58.58 0 0 1 .22-.48 1.4 1.4 0 0 1 .78-.11 2.36 2.36 0 0 1 .9.48 15.14 15.14 0 0 1 3.74 4.46c.35.76.77 1.49 1.18 2.2s.85 1.39 1.24 2.12a27 27 0 0 0 1.51 2.73 54 54 0 0 1 3.09 4.91 10.29 10.29 0 0 1 .75 2.47.68.68 0 0 1 -.21.51.69.69 0 0 1 -.55.08 10.49 10.49 0 0 1 -2.16-1.46c-1.23-1.31-2.32-2.72-3.44-4.12a3.53 3.53 0 0 1 -.36-.89z" fill="#643d1a"/><path d="m412.51 479.63c6.9-21.32 12.74-42.13 12.74-42.13l-41.64-16.6s-14.73 22.84-38.61 58.73z" fill="#633b65"/><path d="m1066.69 216.38-3.92 24.55c-40 1.61-59.64-12.76-67.34-20.63a2.86 2.86 0 0 1 2.1-4.84l53.54.71z" fill="#1c847a"/><path d="m1187.3 338.56-74.91 14.84a321.19 321.19 0 0 1 -15.85-41.32c-9.78 4-19.14 7.14-23.82 6.59-12.21-1.43-15.07-22.52-15.82-24.76s-5-3.92 2.65-9.32c9.61-6.82 12.27-13.51 12.27-13.51s-21.08 8.69-22.53 5.15 3-8.71-5.46-9.3c-10.31-.72-12.77-4.39-6.92-11.21s12.43-9.56 13.66-17.8-3.61-12.67 1.1-32.83 29.29-45.79 67.1-39c49.73 8.94 53.88 26.22 57.79 47.6a39.75 39.75 0 0 1 .44 8.76l-69.49-8.76c-3.76 11.91-11 29.94 17.62 24.23l-2.56 25.29 12.31 29 25.37-4.19c-.51 1.54-.85 2.62-1 3.15-1 4.92 28.05 47.39 28.05 47.39z" fill="#e6a47c"/><circle cx="1062.67" cy="243.01" fill="#9e612b" r="3.75"/><path d="m1080.24 234.89c-26-6.95-30.13-6.49-30.13-6.49s.67-4.64 4.64-5.62 21.73 4.09 25.49 12.11z" fill="#9e612b"/><path d="m1177 222.45c-.93 21.17-13.13 54.74-16.75 65.61l-25.37 4.19-12.31-29 2.56-25.29c-28.65 5.71-21.38-12.32-17.62-24.23z" fill="#9e612b"/><path d="m1117.51 304c-.79.39-1.57.78-2.36 1.15-1.09.51-2.19 1-3.28 1.46-.44.2-.92.33-1.33.56a47.77 47.77 0 0 1 -8.14 3.55c-1.73.6-3.49 1.12-5.25 1.63-.18.05-.56 0-.57-.12a.92.92 0 0 1 .21-.68 5.09 5.09 0 0 1 1.07-.87 53 53 0 0 1 7.78-4.12c2.37-.93 4.66-2.07 7-3.06 1.46-.62 2.94-1.15 4.38-1.88 2.63-1.32 5.31-2.56 8-3.77a32 32 0 0 1 3.59-1.17c.18-.05.49 0 .56.1s0 .39-.17.51a26.94 26.94 0 0 1 -3 2.33c-2.32 1.4-4.73 2.68-7.12 3.95a9.06 9.06 0 0 1 -1.35.49z" fill="#cc7c4b"/><path d="m1179 224.11-134.09-8c4.59-36.78 24.6-57.64 74.79-55.07 41.4 2.1 61.22 29.4 59.3 63.07z" fill="#4b978c"/><path d="m1125.13 237.92s4.23-4.93 9.55-2.17 9.15 21.65-12.11 27.46l-8.37-3.84z" fill="#e6a47c"/><path d="m1131.26 247a4.75 4.75 0 0 0 .23-.63 4.19 4.19 0 0 0 .19-.64 5.38 5.38 0 0 0 .18-.87 3.64 3.64 0 0 0 .06-.87 2.32 2.32 0 0 0 0-.7 5.33 5.33 0 0 0 -.86-1.55.24.24 0 0 1 -.08-.09.18.18 0 0 1 -.09 0c0-.06-.15 0-.24-.08a2.46 2.46 0 0 0 -.9.13 10.2 10.2 0 0 0 -2.69 1.43.53.53 0 0 1 -.43 0 .89.89 0 0 1 -.22-.57 2 2 0 0 1 .32-.87 7.47 7.47 0 0 1 2.11-2.17 5.55 5.55 0 0 1 .81-.4 3.26 3.26 0 0 1 1-.19h.58q.3.08.6.18a3 3 0 0 1 1 .64 5.66 5.66 0 0 1 1.4 2.79 6.77 6.77 0 0 1 .11 2.76 11.83 11.83 0 0 1 -1.13 3.05 12.84 12.84 0 0 1 -3.54 4.39 7.32 7.32 0 0 1 -2.13 1.06.45.45 0 0 1 -.43-.11.5.5 0 0 1 0-.43 19.71 19.71 0 0 1 1.16-1.93 19.06 19.06 0 0 0 2.47-3.72 2.83 2.83 0 0 1 .47-.59z" fill="#cc7c4b"/><path d="m1094.06 274.7q6.17-5.22 12-10.79c2.65-2.54 5.27-5.13 7.79-7.79 1.24-1.34 2.47-2.69 3.66-4.07.56-.69 1.2-1.41 1.66-2.05a14 14 0 0 0 1.27-2.14 16.12 16.12 0 0 0 .73-1.87l.65-2.13c.44-1.42.87-2.83 1.21-4.25a195.41 195.41 0 0 0 5-26.74c.94-9 1.09-18.07-.94-26.74-1.33-5.32-3.55-10.48-7.24-14.49a23.57 23.57 0 0 0 -6.43-4.95 27.08 27.08 0 0 0 -7.78-2.63 11.79 11.79 0 0 1 -2.86-.77 6 6 0 0 1 2.85-.4 23.37 23.37 0 0 1 8.29 2 27.38 27.38 0 0 1 6 3.72 29.94 29.94 0 0 1 4.82 5.24 35.91 35.91 0 0 1 3.46 6.2 44.77 44.77 0 0 1 2.24 6.71c2.27 9.16 2.18 18.69 1 28a182.75 182.75 0 0 1 -4.67 23.58c-.52 1.93-1 3.87-1.6 5.78l-.84 2.88a16.38 16.38 0 0 1 -1.26 3.07 16.85 16.85 0 0 1 -1.83 2.75c-.65.79-1.3 1.58-2 2.33q-2 2.28-4.09 4.42a263 263 0 0 1 -22.07 19.93 262.53 262.53 0 0 1 -22.25 16.43l-5.81 3.74-5.91 3.59a11.59 11.59 0 0 1 -7.35 1.66 11.41 11.41 0 0 1 -3.66-1.06 9.15 9.15 0 0 1 -1.65-1 13.59 13.59 0 0 1 -1.43-1.17c-5.79-5.23-11.26-10.64-16.81-15.95a8.37 8.37 0 0 1 -1.77-2.18c0-.18 1.29.54 2.12 1.21 6 4.81 12 9.52 17.91 14.61a11.89 11.89 0 0 0 2.25 1.65 8.64 8.64 0 0 0 7.62.28 9.67 9.67 0 0 0 1.18-.63l1.33-.84 2.64-1.67c1.78-1.1 3.51-2.26 5.25-3.42 6.94-4.63 13.7-9.56 20.22-14.77l6.92-5.36z" fill="#0f4540"/><path d="m1037.61 293.55-11.16-9.88" fill="none" stroke="#0f4540" stroke-linecap="round" stroke-miterlimit="10" stroke-width="7"/><path d="m1065.7 241.25c-.25-.19-.55-.29-.8-.47s-.72-.46-1.08-.69c-.15-.1-.28-.25-.45-.27a10.47 10.47 0 0 1 -3.1-.86 19.56 19.56 0 0 0 -2-.74c-.08 0-.23-.3-.25-.41a1.5 1.5 0 0 1 .08-.74 1.55 1.55 0 0 1 .55-.58 5.18 5.18 0 0 1 4.09-.5 17.51 17.51 0 0 1 3.27 1.46c.61.44 1.13 1 1.71 1.38a9.42 9.42 0 0 1 2.71 2.88 4.59 4.59 0 0 1 .31 1.76.68.68 0 0 1 -.27.41 1 1 0 0 1 -.5.16 5.76 5.76 0 0 1 -1.59-.58c-.44-.27-.81-.59-1.21-.88s-.78-.58-1.21-.78c-.14-.08-.18-.31-.28-.47z" fill="#9e612b"/><path d="m181.1 242.38a4.19 4.19 0 0 1 1.33-1.66 4.63 4.63 0 0 1 .8-.49c.22-.12.51-.11.72-.24a3.25 3.25 0 0 1 2.22-.22 4.42 4.42 0 0 1 1.79.88 7 7 0 0 1 1.53 1.71.42.42 0 0 1 -.07.37 1.55 1.55 0 0 1 -.48.3 1.4 1.4 0 0 1 -.61 0c-1.06-.28-2-.34-2.71-.6a1.57 1.57 0 0 0 -1.58.24 2.24 2.24 0 0 0 -.51.39 1.35 1.35 0 0 0 -.42.54 6.88 6.88 0 0 0 -.44 2.72 8.61 8.61 0 0 1 -.31 1.43.48.48 0 0 1 -.28.26.52.52 0 0 1 -.4 0 3.76 3.76 0 0 1 -1-1.32 6.29 6.29 0 0 1 -.08-3.71 1.9 1.9 0 0 1 .43-.6z" fill="#643d1a"/><path d="m764 411.78-37.35-25.6a2.64 2.64 0 0 1 1.81-4.55h25.3z" fill="#fff"/><path d="m946.88 363h-197.79l-28.66-86.12a7.22 7.22 0 0 1 6.85-9.51h182.54a7.24 7.24 0 0 1 6.86 4.94z" fill="#f7f5f5"/><path d="m789.71 406.13c0-17.52 57.56-3.09 57.56-16.5s-90.71-1.95-43-24.5l88.09-.5s26.66 4 20.66 14.5c-8.45 14.8 21.75 19.5 36 27z" fill="#89cbea"/><path d="m893.99 367.32h-89.06l-32.21-97.19h89.05z" fill="#6b746b"/><path d="m808.44 305.7c.8 2.39 1.6 4.78 2.38 7.17q1.6 4.9 3.19 9.82c.42 1.32.81 2.66 1.26 3.95 2.83 8 5.42 16.13 7.93 24.23 1.56 5 3.07 10 4.58 15.05a4.39 4.39 0 0 1 .23 1.38 2.82 2.82 0 0 1 -.75-1.11c-.49-1.08-1-2.32-1.46-3.57-2.89-7.88-5.77-15.73-8.39-24-2.22-7-4.58-14-6.82-21-1.39-4.36-2.71-8.68-4.18-13.08-2.69-8.08-5.32-16.2-7.89-24.3-1.1-3.46-2-6.91-3-10.34a3.67 3.67 0 0 1 -.18-1.3c.06-.06.4.52.58 1 1.28 3.32 2.61 6.61 3.81 10 2.56 7.34 5.06 14.75 7.57 22.14.43 1.28.79 2.61 1.19 3.92z" fill="#464f53"/><circle cx="825.89" cy="316.27" fill="none" r="4.12" stroke="#464f53" stroke-linecap="round" stroke-miterlimit="10" stroke-width="2"/><path d="m890.13 345.93h-55.25a2.45 2.45 0 1 1 0-4.9h50.26l-2.14-6.43 8.79 4.78a3.49 3.49 0 0 1 -1.66 6.55z" fill="#464f53"/><path d="m886.64 335.13h-55.25a2.45 2.45 0 1 1 0-4.9h50.26l-2.13-6.43 8.79 4.78a3.49 3.49 0 0 1 -1.67 6.55z" fill="#464f53"/><path d="m952.58 410.24h-182.53a7.22 7.22 0 0 1 -6.86-4.95l-42.77-128.41a7.23 7.23 0 0 1 6.86-9.52h182.53a7.23 7.23 0 0 1 6.86 4.95l42.77 128.41a7.23 7.23 0 0 1 -6.86 9.52z" fill="none" stroke="#fff" stroke-linecap="round" stroke-miterlimit="10" stroke-width="7"/><path d="m843.45 317.5a10.44 10.44 0 0 1 -.74 1.5c-.27.48-.51 1-.82 1.45l-1 1.33a9.71 9.71 0 0 1 -1 1.27l-1.11 1.18a12 12 0 0 1 -1.15 1.11c-.82.66-1.6 1.39-2.45 2l-1.77 1.19-.89.59-.92.5a31.84 31.84 0 0 1 -3.78 1.91 28.62 28.62 0 0 1 -8.31 2.32 21.65 21.65 0 0 1 -3.51.11l-1.75-.08-1.73-.2a21.23 21.23 0 0 1 -10.18-3.93 21.78 21.78 0 0 1 -2.14-1.83c-.65-.67-1.25-1.41-1.84-2.14a25.29 25.29 0 0 1 -1.48-2.45l-.58-1.31c-.09-.22-.19-.43-.27-.66l-.2-.69a13.47 13.47 0 0 1 -.59-2.79l-.16-1.42v-1.38c0-.46 0-.92.06-1.38l.18-1.36a20 20 0 0 1 .56-2.66 26.88 26.88 0 0 1 4.86-9.38 37.12 37.12 0 0 1 9.45-8.4 50.84 50.84 0 0 1 11.18-5.25c.81-.27 2.27-.35 2.22-.15a3.32 3.32 0 0 1 -1.46 1.72c-.77.47-1.57 1-2.4 1.53l-1.27.76c-.42.28-.84.55-1.27.8a39.3 39.3 0 0 0 -13.13 12.51 23.86 23.86 0 0 0 -3.21 8 18.23 18.23 0 0 0 -.28 2.08c-.08.7 0 1.39-.05 2.09s.15 1.31.22 2 .29 1.3.55 1.91c1.52 4.31 5.77 7.63 10.59 8.64a21.63 21.63 0 0 0 7.45.28 28.81 28.81 0 0 0 7.32-2.25 37.3 37.3 0 0 0 8.24-5.26 14.6 14.6 0 0 0 4.9-7.73 10.87 10.87 0 0 0 -1.3-7.92 16.94 16.94 0 0 0 -6.31-5.87 40.7 40.7 0 0 0 -18-4.57 74.3 74.3 0 0 0 -8 .14 27.82 27.82 0 0 0 -7.86 1.64c-.72.32-1.84.55-2.05.37s.49-1.06 1.17-1.52a29.6 29.6 0 0 1 7.91-3.38 35.83 35.83 0 0 1 8.65-1.37 49.69 49.69 0 0 1 9.41.68 38.06 38.06 0 0 1 9.22 2.74 23.89 23.89 0 0 1 8.29 5.82 16.87 16.87 0 0 1 4.35 9.81 15.12 15.12 0 0 1 -1.63 7.39z" fill="#ee4f8d"/><path d="m857.32 432.28c2.46 3.72 12.61 25.34 23.69 47.35h69.34c-25.21-30.2-50.68-64.29-49.35-71.6 3.26-18-2-33.65-7.23-43.72-5.67-11-10.92-28.55-13.08-27.5-6.07 3-4.07 28.44-4.07 28.44-13.42-22.14-37-59.68-41.38-57.42-4.69 2.45 7.94 28.71 16.91 46 0 0-4.75-5-8.84-2.36-3.37 2.21-5.33 5.76.08 17.25-3.5-6.4-7.3-9-10.72-6.33-2.73 2.1-4 5.16-.45 13.48-2.32-4.37-5.6-3.71-7.63-2.26-4.41 3.16 0 19.86 10.79 37.69 6.85 11.34 19.42 17.15 21.94 20.98zm-25.06-56.28a13.14 13.14 0 0 1 .64 1.44c-.23-.55-.45-1.03-.64-1.44z" fill="#e6a47c"/><path d="m864.58 455.77.12-.09c-.11-.03-.12.09-.12.09z" fill="#20988c"/><path d="m877.78 479.63h80.58c-19.79-25.61-48.71-59.1-48.71-59.1l-44.95 35.15c.43.11 2.56 2.54 13.08 23.95z" fill="#20988c"/><path d="m907.75 458c-1.28.73-2.57 1.48-3.86 2.19-1.77 1-3.55 1.94-5.33 2.9-.72.39-1.48.72-2.16 1.14-4.25 2.67-8.66 5-13.12 7.25-2.77 1.39-5.56 2.71-8.34 4-.29.13-.86.2-.87.11a1.24 1.24 0 0 1 .4-.85 13.18 13.18 0 0 1 1.78-1.45 130.69 130.69 0 0 1 12.69-7.89c3.83-2 7.59-4.18 11.41-6.21 2.38-1.26 4.77-2.42 7.14-3.77 4.35-2.48 8.77-4.86 13.19-7.19 1.89-1 3.87-1.74 5.81-2.57.29-.12.75-.17.83-.07s-.15.47-.39.65c-1.69 1.25-3.33 2.57-5.15 3.69-3.89 2.41-7.86 4.72-11.82 7.05-.68.41-1.44.7-2.17 1.05z" fill="#23544c"/><path d="m881.25 370.52c.23.38.48.75.69 1.13.3.53.57 1.07.85 1.61a3.57 3.57 0 0 0 .32.65 14.09 14.09 0 0 1 2.18 3.92c.35.86.63 1.76.92 2.66a.46.46 0 0 1 -.16.37.94.94 0 0 1 -.58.08 1.94 1.94 0 0 1 -.68-.38 12.06 12.06 0 0 1 -2.84-3.5c-.54-1.17-1.26-2.26-1.82-3.42a21.84 21.84 0 0 0 -1-2.18 41.5 41.5 0 0 1 -2.11-3.95 8.07 8.07 0 0 1 -.44-1.94.46.46 0 0 1 .18-.37.52.52 0 0 1 .42 0 8 8 0 0 1 1.55 1.26c.87 1.07 1.62 2.22 2.4 3.35a2.4 2.4 0 0 1 .23.7z" fill="#cc7c4b"/><path d="m856.35 359c.2.36.41.72.59 1.09s.49 1 .72 1.54a3.23 3.23 0 0 0 .27.63 12.54 12.54 0 0 1 1.87 3.74c.28.84.5 1.7.72 2.57a.47.47 0 0 1 -.18.36 1 1 0 0 1 -.57.07 1.61 1.61 0 0 1 -.64-.37 10.52 10.52 0 0 1 -2.55-3.39c-.45-1.14-1.08-2.19-1.56-3.32a18.29 18.29 0 0 0 -.88-2.1 33.41 33.41 0 0 1 -1.8-3.83 6.89 6.89 0 0 1 -.3-1.85.47.47 0 0 1 .21-.34.49.49 0 0 1 .41 0 7.3 7.3 0 0 1 1.45 1.23c.77 1.05 1.44 2.15 2.12 3.24a2.45 2.45 0 0 1 .18.67z" fill="#cc7c4b"/><path d="m1265.52 390.76c-3-13.62-7.93-29.63-26.88-44.63-11-8.71-26-12.86-45.74-12.79l-12.78-17.8-81.79 19.11-11.9 17.77c-34.44 8.55-56.91 17.85-79.15 40.67-24.11 24.76-35.8 75.81-36.14 86.54h307.75c-.96-8.32-7.17-60.95-13.37-88.87z" fill="#20988c"/><path d="m845.07 369.35c.15.28.32.55.46.84s.36.79.53 1.2a2.08 2.08 0 0 0 .19.49 7.46 7.46 0 0 1 1.44 2.9c.2.65.33 1.33.48 2 0 .07-.12.28-.19.32a1.32 1.32 0 0 1 -.56.13 1.23 1.23 0 0 1 -.58-.24 6.37 6.37 0 0 1 -2.14-2.52c-.34-.9-.84-1.7-1.18-2.58a12.32 12.32 0 0 0 -.63-1.66 18.66 18.66 0 0 1 -1.31-3 4.72 4.72 0 0 1 -.06-1.51.51.51 0 0 1 .24-.3.63.63 0 0 1 .4 0 5.25 5.25 0 0 1 1.22.91c.61.79 1.12 1.64 1.65 2.47a1.47 1.47 0 0 1 .1.53z" fill="#cc7c4b"/><path d="m834.59 377.81c.1.19.22.38.31.59s.22.57.32.85c0 .12 0 .27.11.36a3.61 3.61 0 0 1 .9 2.07 14.58 14.58 0 0 1 .13 1.52.71.71 0 0 1 -.23.27 1.89 1.89 0 0 1 -.53.16 1.08 1.08 0 0 1 -.5-.12 3.4 3.4 0 0 1 -1.59-1.73c-.18-.66-.53-1.23-.73-1.87a6.93 6.93 0 0 0 -.36-1.2 10 10 0 0 1 -.85-2.14 2.81 2.81 0 0 1 .13-1.12.56.56 0 0 1 .26-.24.63.63 0 0 1 .38-.07 3.24 3.24 0 0 1 1 .55 15.24 15.24 0 0 1 1.24 1.69c.07.1 0 .26 0 .4z" fill="#cc7c4b"/><path d="m1152.41 343.08c-2.5.59-5 1.18-7.52 1.72l-10.31 2.2c-1.39.29-2.8.51-4.15.84-8.44 2.07-16.94 3.76-25.43 5.42-5.26 1-10.51 2-15.74 3.08-.54.11-1.48.12-1.43 0a2.33 2.33 0 0 1 1.14-.84 36.78 36.78 0 0 1 3.73-1.3c8.24-2.38 16.49-4.61 25.14-6.32 7.36-1.46 14.72-3.11 22.07-4.6 4.57-.92 9.09-1.77 13.69-2.86 8.44-2 16.91-4 25.41-5.82 3.62-.75 7.26-1.21 10.88-1.67a2.62 2.62 0 0 1 1.35.09c.06.11-.56.45-1 .58-3.51.93-7 2-10.54 2.93l-23.13 5.84c-1.34.33-2.73.54-4.1.8z" fill="#23544c"/><path d="m142.63 284.45c-.91-.26-1.83-.51-2.74-.79-1.25-.38-2.49-.78-3.73-1.18-.49-.16-1-.39-1.48-.5a63.89 63.89 0 0 1 -9.23-2.82c-1.87-.7-3.71-1.46-5.55-2.22-.19-.07-.45-.38-.41-.46a1 1 0 0 1 .62-.38 5.89 5.89 0 0 1 1.51 0 54.12 54.12 0 0 1 9.4 2.07c2.63.91 5.33 1.63 8 2.52 1.64.55 3.24 1.19 4.93 1.66 3.1.88 6.17 1.87 9.22 2.91a33.1 33.1 0 0 1 3.73 1.73c.19.09.39.34.37.46s-.32.26-.51.24a31.08 31.08 0 0 1 -4.08-.47c-2.88-.64-5.74-1.4-8.6-2.15a10.32 10.32 0 0 1 -1.44-.58z" fill="#fff377"/><path d="m132.91 283.26c.89.34 1.79.66 2.67 1 1.2.48 2.38.9 3.6 1.31.49.15 1 .37 1.47.47 3.13.58 6.22 1.31 9.34 2 1.93.45 3.86.92 5.8 1.33.2 0 .52.29.49.37a1 1 0 0 1 -.54.5 6.11 6.11 0 0 1 -1.5.23 37.59 37.59 0 0 1 -9.71-.88 72.51 72.51 0 0 1 -8.22-2.36c-1.69-.64-3.17-1.44-4.84-2-3-1.14-6-2.38-9-3.67a33.39 33.39 0 0 1 -3.59-2c-.18-.1-.36-.37-.33-.49s.34-.23.53-.2a33 33 0 0 1 4 .81c2.82.87 5.61 1.87 8.4 2.84a11.38 11.38 0 0 1 1.39.71z" fill="#fff377"/><path d="m422.12 459.52c-1.11 3.34-2.93 4.61-5.68 3.69s-4.31-3.3-3.2-6.64 4.07-5.21 6.82-4.29 3.17 3.89 2.06 7.24z" fill="#412244"/><path d="m410.19 457.07c-.39-.07-.79-.11-1.18-.21s-1.05-.29-1.57-.46c-.21-.06-.41-.22-.63-.22a7.44 7.44 0 0 1 -3.89-1.25 12.58 12.58 0 0 1 -2.1-1.63.61.61 0 0 1 0-.48 1.79 1.79 0 0 1 .49-.57 1.59 1.59 0 0 1 .69-.25 8.35 8.35 0 0 1 3.81.36c1 .45 2.12.63 3.18 1a11 11 0 0 0 2 .68 28.81 28.81 0 0 1 3.83.92 5.86 5.86 0 0 1 1.53 1.06.17.17 0 0 1 .06.08.22.22 0 0 1 .08.15.19.19 0 0 1 0 .13s-.1.09 0 0l-.11.08.12-.08h-.05l-.16.13a.29.29 0 0 0 -.09.15.36.36 0 0 0 0 .18v.05a5.66 5.66 0 0 1 -1.76.66 27.08 27.08 0 0 1 -3.71-.14c-.21 0-.4-.21-.6-.32z" fill="#412244"/><path d="m1066.55 184.71c-1.22-.63-2.44-1.24-3.68-1.83a1.59 1.59 0 0 0 -2 .71c-.68 1.12-1.34 2.25-2 3.38 2.11-.19 4.25-.32 6.4-.4q.65-.93 1.28-1.86zm-11.19 8.78c-.6 1.15-1.18 2.3-1.74 3.46a1.29 1.29 0 0 0 .4 1.79c1.1.51 2.19 1 3.26 1.56.33-.64.68-1.29 1-1.94-.91-1.63-1.89-3.26-2.92-4.87zm-1.53-6.48.33.47 2-.23c.84-1.56 1.71-3.1 2.6-4.64a4.25 4.25 0 0 1 5.38-1.68c2 .95 3.94 2 5.86 3q-1.7 2.38-3.3 4.81c-3.76.09-7.46.35-11.12.79q2.87 4.29 5.27 8.7-1.42 2.49-2.76 5-2.46-1.29-5-2.46a3.47 3.47 0 0 1 -1.39-4.69c.75-1.58 1.52-3.16 2.31-4.72q-.49-.75-1-1.5l-.8.12c-.44.02 1.38-3.31 1.62-2.98zm.09-10.45" fill="#fff"/><path d="m795.87 178.88c1.18-.09 2.35-.14 3.52-.16-.42-.58-.85-1.16-1.28-1.73a.89.89 0 0 0 -1.12-.28c-.64.4-1.28.8-1.91 1.22.27.31.53.63.79.95zm4.52 6 .68 1c.55-.35 1.12-.7 1.69-1a.73.73 0 0 0 .12-1c-.38-.6-.77-1.19-1.16-1.79-.47.91-.91 1.91-1.33 2.83zm2.89-4.94h-.45l-.47.88c.53.81 1 1.63 1.54 2.45a1.91 1.91 0 0 1 -.49 2.65c-.89.53-1.75 1.07-2.6 1.64-.58-.87-1.18-1.73-1.8-2.59.7-1.7 1.5-3.39 2.37-5.07-2 0-4.07.05-6.13.22-.68-.82-1.37-1.63-2.08-2.44 1-.68 2-1.35 3-2a2.35 2.35 0 0 1 3 .61c.58.79 1.14 1.59 1.7 2.39h1.13l.15-.27c.14-.17 1.34 1.59 1.13 1.59zm-1.76-7.25" fill="#fff"/><path d="m907.63 278.2 7.72 21.87a1 1 0 0 1 -.91 1.39l-21.92-.11a2.18 2.18 0 0 1 -1.89-1.4l-7.72-21.87a1 1 0 0 1 .91-1.39l21.92.1a2.21 2.21 0 0 1 1.89 1.41z" fill="#c6c1b5"/><path d="m890.5 299.41c2.26-1.23 5.26-1.79 5.39-2.78.2-1.62-.55-3.94-1.81-6.63s-4.18-8.42 1.63-9a6.26 6.26 0 0 1 6.23 3.14 15 15 0 0 1 1.36 3.07c.79 2.55 1 5.11.35 6a2.6 2.6 0 0 1 -2.41 1.16 8.39 8.39 0 0 0 1.1 2.9c.55.44 8 .56 11.2 3.84l-21.1.32a1.9 1.9 0 0 1 -1.76-1.38z" fill="#67326b"/><path d="m903.54 288s-.48-1.62-.62-1.95a12 12 0 0 0 -1-1.91 6.26 6.26 0 0 0 -6.23-3.14c-4.61.46-3.73 4.15-2.54 7 .31.74.64 1.43.9 2 1.26 2.69 2 5 1.81 6.63a.8.8 0 0 1 -.07.2l5.35 2.38 1.42-1.8a.83.83 0 0 1 -.25-.09 8.39 8.39 0 0 1 -1.1-2.9 3.5 3.5 0 0 0 2.84-1.29c.57-.83.15-2.72-.51-5.13z" fill="#9e612b"/><path d="m901.93 284.07s-.75-.84-2.94-.4a5.08 5.08 0 0 0 -3 1.46c0 1.32.54 1.14 0 2.07-.29.51-1.26 1.56-1 2.68a22.36 22.36 0 0 0 .31 2.47c.31.88 1.5 2 1.56 2.91s-.65 1.33-1 1.63a7 7 0 0 1 -2.61 1.43 18.31 18.31 0 0 0 -2.12.81s-1.44-2.25-1.19-3.93 4.17-1.66 4.17-1.66-3.4-2.17-3.86-3.47c-1.06-3-.37-6.25 1-7.59a6.39 6.39 0 0 1 5.22-2c1.59 0 4.37 1.06 5 2.06a2.06 2.06 0 0 1 .46 1.53z"/><path d="m896.14 288.37s-1.48-1.77-2.51-.49.79 3.48 2 3.16z" fill="#9e612b"/><path d="m894.6 293.47.19.06.25.1s.06 0 .1 0c.2 0 .38.07.57.09a1.15 1.15 0 0 0 .37 0s0 0 0 0 0 .07 0 .09a.24.24 0 0 1 -.07.12.84.84 0 0 1 -.74.19 4 4 0 0 1 -.58-.18 2.41 2.41 0 0 0 -.33-.15 6.62 6.62 0 0 1 -.62-.24.83.83 0 0 1 -.23-.19s0 0 0-.06a1.05 1.05 0 0 1 .3 0l.59.14a.33.33 0 0 1 .1.06z" fill="#fff377"/><path d="m1052.22 469.94c.33-.84.64-1.69 1-2.53l1.39-3.43a12.55 12.55 0 0 0 .57-1.38 77 77 0 0 1 3.09-8.63l2.2-5.23c.08-.18.38-.44.45-.39a.89.89 0 0 1 .4.6 5 5 0 0 1 0 1.44 41 41 0 0 1 -2.21 9c-1 2.47-1.84 5-2.9 7.48-.65 1.53-1.41 3-2 4.56a91.42 91.42 0 0 1 -3.88 8.42 25.62 25.62 0 0 1 -2.23 3.25c-.11.16-.39.31-.51.27s-.2-.35-.16-.53a36.76 36.76 0 0 1 1-3.77c1-2.61 2.06-5.2 3-7.83.18-.45.47-.86.7-1.3z" fill="#23544c"/><path d="m405.9 253.58 1.65 2 5-1.82a.88.88 0 0 1 -.1-.22c-.41-1.67 0-4 .92-6.56a19.64 19.64 0 0 0 1-3.55l-10.11-1.94a12 12 0 0 0 -.46 1.59c-.44 2.52-.57 5.81.15 6.82.37.53 1.56.73 2.85.77a7 7 0 0 1 -.7 2.84.69.69 0 0 1 -.2.07z" fill="#e6a47c"/></g></svg>